# xmcd CD database file
#
# Track frame offsets:
#	150
#	12282
#	31775
#	53192
#	73927
#	95430
#	116652
#	136212
#	158162
#	182005
#
# Disc length: 2674 seconds
#
# Revision: 1
# Processed by: cddbd v1.5.2PL0 Copyright (c) Steve Scherf et al.
# Submitted via: CDex 1.51
#
DISCID=800a700a
DTITLE=T-SQUARE - F-1 GRAND PRIX
DYEAR=1989
DGENRE=Fusion
TTITLE0=GRAND PRIX
TTITLE1=TRUTH
TTITLE2=Breeze And You
TTITLE3=IN THE GRID
TTITLE4=Celebration
TTITLE5=CRISIS
TTITLE6=PRIME
TTITLE7=GO FOR IT
TTITLE8=EL MIRAGE
TTITLE9=OMENS OF LOVE
EXTD=YEAR: 1989
EXTT0=
EXTT1=
EXTT2=
EXTT3=
EXTT4=
EXTT5=
EXTT6=
EXTT7=
EXTT8=
EXTT9=
PLAYORDER=
